<svg width="103" height="17" fill="none" xmlns="http://www.w3.org/2000/svg"><path d="M94.631 0l1.88 5.873h6.08l-4.92 3.63 1.88 5.874-4.92-3.63-4.919 3.63 1.88-5.874-4.92-3.63h6.08L94.632 0zM72.744 0l1.879 5.873h6.08l-4.92 3.63 1.88 5.874-4.92-3.63-4.918 3.63 1.879-5.874-4.92-3.63h6.08L72.745 0zM50.856 0l1.879 5.873h6.08l-4.919 3.63 1.88 5.874-4.92-3.63-4.919 3.63 1.879-5.874-4.92-3.63h6.081L50.857 0zm-20.6 0l1.88 5.873h6.08l-4.92 3.63 1.88 5.874-4.92-3.63-4.919 3.63 1.88-5.874-4.92-3.63h6.08L30.258 0zM8.369 0l1.879 5.873h6.08l-4.92 3.63 1.88 5.874-4.92-3.63-4.918 3.63 1.879-5.874-4.92-3.63h6.08L8.37 0z" fill="#BDBEC2" fill-opacity=".7"/></svg>